<svg id="Layer_1" data-name="Layer 1" xmlns="http://www.w3.org/2000/svg" viewBox="0 0 412.26 74.94"><defs><style>.cls-1{fill:#231f20;}.cls-2{fill:#38b34a;}.cls-3{fill:#3bb54a;}</style></defs><polygon class="cls-1" points="287.79 27.93 279.88 27.93 279.88 20.26 304.55 20.26 304.55 27.93 296.52 27.93 296.52 55.68 287.79 55.68 287.79 27.93"/><polygon class="cls-1" points="308.56 20.26 332 20.26 332 27.93 317.24 27.93 317.24 34.31 330.87 34.31 330.87 41.86 317.24 41.86 317.24 48.24 332.64 48.24 332.64 55.68 308.56 55.68 308.56 20.26"/><path class="cls-1" d="M356.37,19.08a19.79,19.79,0,0,1,15.17,6.49l-6,5.67a13.17,13.17,0,0,0-9.21-3.95C350.05,27.29,346,32,346,38s4.07,10.68,10.39,10.68a13.17,13.17,0,0,0,9.21-3.95l5.78,5.66a20.1,20.1,0,0,1-15,6.5c-11.21,0-19.18-8.33-19.18-18.89s8-18.89,19.18-18.89"/><polygon class="cls-1" points="375.73 20.26 384.41 20.26 384.41 34.19 398.28 34.19 398.28 20.26 406.9 20.26 406.9 55.68 398.28 55.68 398.28 41.69 384.41 41.69 384.41 55.68 375.73 55.68 375.73 20.26"/><polygon class="cls-2" points="87.16 20.26 110 20.26 110 27.93 95.83 27.93 95.83 35.49 108.88 35.49 108.88 43.04 95.83 43.04 95.83 55.68 87.16 55.68 87.16 20.26"/><path class="cls-2" d="M113.6,20.26h8.62V42.45c0,4.73,2.24,6.38,5.25,6.38,3.31,0,5.37-1.65,5.37-6.38V20.26h8.68V43.75c0,8.38-6.26,13.11-14.05,13.11-8.08,0-13.87-5-13.87-13.11Z"/><polygon class="cls-2" points="153.44 27.93 145.53 27.93 145.53 20.26 170.21 20.26 170.21 27.93 162.18 27.93 162.18 55.68 153.44 55.68 153.44 27.93"/><path class="cls-2" d="M174.22,20.26H188.5c5.9,0,10.63,4.37,10.63,9.92,0,3.3-1.36,5.37-3.84,7.26v.12c3.66,2.59,5.19,5.07,5.19,8.73,0,4.9-3.89,9.39-10.62,9.39H174.22ZM187,34.37a3.28,3.28,0,1,0,0-6.55h-4.13v6.55Zm1.12,13.57a3,3,0,0,0,3.3-3.07,3.11,3.11,0,0,0-3.3-3.12h-5.25v6.19Z"/><path class="cls-2" d="M223.5,19.08c11.16,0,19.07,8.32,19.07,18.89s-7.91,18.89-19.07,18.89S204.44,48.53,204.44,38s7.85-18.89,19.06-18.89m0,29.57c6.26,0,10.27-4.72,10.27-10.68s-4-10.69-10.27-10.69S213.23,32,213.23,38s4,10.68,10.27,10.68"/><polygon class="cls-2" points="248.59 20.26 257.27 20.26 257.27 48.24 272.67 48.24 272.67 55.68 248.59 55.68 248.59 20.26"/><path class="cls-3" d="M40.07,33.84a3.06,3.06,0,1,0-3,3.06,3.06,3.06,0,0,0,3-3.06m-3,1a1,1,0,1,1,1-1,1,1,0,0,1-1,1M68.68,29A3.06,3.06,0,0,0,65.63,26h0A31.5,31.5,0,0,0,40,7.69a3,3,0,0,0-5.84,0A31.53,31.53,0,0,0,8.41,26a3.06,3.06,0,0,0-3,3.05,3,3,0,0,0,1.14,2.37A31.4,31.4,0,0,0,15.86,62.2a3.14,3.14,0,0,0-.26,1.22,3.05,3.05,0,0,0,5,2.35,31.36,31.36,0,0,0,32.85,0,3,3,0,0,0,1.95.71,3.06,3.06,0,0,0,3.06-3,3,3,0,0,0-.27-1.23,31.36,31.36,0,0,0,9.33-30.78A3,3,0,0,0,68.68,29M38.05,11.45a3,3,0,0,0,1.79-1.69A29.46,29.46,0,0,1,63.67,26.68,3,3,0,0,0,62.57,29a1.79,1.79,0,0,0,0,.23l-4.52,2L38.05,19ZM37,7.6a1,1,0,1,1-1,1,1,1,0,0,1,1-1M34.22,9.76A3.06,3.06,0,0,0,36,11.44V19L16,31.28l-4.49-2a1.94,1.94,0,0,0,0-.24,3,3,0,0,0-1.12-2.35A29.44,29.44,0,0,1,34.22,9.76M8.43,28a1,1,0,0,1,1,1v0a.94.94,0,0,1-.23.63,1,1,0,0,1-.75.35,1,1,0,1,1,0-2M18.66,64.4h-.12a1,1,0,0,1-.86-1,1,1,0,1,1,1,1m1-3.85a3.29,3.29,0,0,0-1-.18,3.05,3.05,0,0,0-1.38.33A29.3,29.3,0,0,1,8.49,32.07a3,3,0,0,0,2.13-.92l4.44,2,7.73,23.8ZM52.4,64a29.29,29.29,0,0,1-30.75,0,2.69,2.69,0,0,0,.06-.57,3.09,3.09,0,0,0-.42-1.54l3-3.55H35.1a1,1,0,0,0,1-1V41.37a1,1,0,0,0-.53-.91l-11.5-6.41a1,1,0,0,0-1,0,1,1,0,0,0-.52.9v5.82a1.05,1.05,0,0,0,.54.91L28,44.42a1,1,0,1,0,1-1.81l-4.38-2.44V36.72L34.07,42V56.25H24.74L17.18,33,37,20.82,56.86,33,49.29,56.25H39.93L39.81,42l9.41-5.25v3.45l-4.38,2.44a1,1,0,1,0,1,1.81l4.91-2.73a1,1,0,0,0,.53-.91V35a1,1,0,0,0-1.54-.91L38.26,40.46a1,1,0,0,0-.53.92l.14,15.92v.05a.09.09,0,0,0,0,0v.05a.11.11,0,0,1,0,0,.13.13,0,0,1,0,.06s0,0,0,0a.08.08,0,0,0,0,0s0,0,0,.05l0,0,0,0,0,.05,0,0,0,.05,0,0,0,0,0,0,0,0,0,0,0,0,0,0,.05,0,0,0,.05,0h0l.06,0,0,0,.06,0h0l.08,0H49.71l3,3.57a3,3,0,0,0-.41,1.52,3.31,3.31,0,0,0,0,.55m3.92-.2a1,1,0,0,1-.83.63H55.4a1,1,0,1,1,1-1,1,1,0,0,1-.06.35m.44-3.08a3.09,3.09,0,0,0-1.36-.32,3.16,3.16,0,0,0-1.06.19l-3.09-3.62L59,33.14l4.45-2a3,3,0,0,0,2.12.93,29.37,29.37,0,0,1-8.79,28.62M65.63,30a1,1,0,0,1-1-.93V29a1,1,0,1,1,1,1"/></svg>